<svg width="591" height="464" viewBox="0 0 591 464" xmlns="http://www.w3.org/2000/svg" xmlns:xlink="http://www.w3.org/1999/xlink"><title>Group</title><defs><path id="a" d="M0.046875 4.03896783e-28L612.835937 4.54747351e-13 612.835938 489.320313 0.046875 489.320312z"/><linearGradient x1="37.053%" y1="-38.735%" x2="33.786%" y2="95.07%" id="d"><stop stop-color="#2D1F98" offset="0%"/><stop stop-color="#E64C4C" offset="100%"/></linearGradient><path d="M712.62 341.213c-45.69 21.805-97.585 49.194-151.819 78.699C395.237 509.983 225.664 437.7.181 361.347L292.184.75 712.62 341.213z" id="c"/><path d="M649.844 372.39c-63.146 4.142-136.084-2.996-218.813-21.412C272.693 315.73 133.37 286.046-37.813 283.43L191.415.75l458.43 371.64z" id="e"/><path d="M705.698 269.925c-157.801 34.344-301.262 61.58-429.786 80.97-73.288 11.058-133.28 9.745-187.698 1.903L373.296.751l332.402 269.174z" id="f"/><path d="M615.076 291.497c-184.841 67.233-334.687 68.019-447.425.203-36.232-21.796-71.53-38.715-106.076-50.81L256.035.75l359.041 290.746z" id="g"/></defs><g transform="translate(-22)" fill="none" fill-rule="evenodd"><mask id="b" fill="#fff"><use xlink:href="#a"/></mask><g mask="url(#b)"><g transform="rotate(39 517.869 272.013)"><use fill="url(#d)" opacity=".35" transform="matrix(-1 0 0 1 712.801 0)" xlink:href="#c"/><use fill="url(#d)" opacity=".35" transform="matrix(-1 0 0 1 612.031 0)" xlink:href="#e"/><use fill="url(#d)" opacity=".35" transform="matrix(-1 0 0 1 793.912 0)" xlink:href="#f"/><use fill="url(#d)" opacity=".35" transform="matrix(-1 0 0 1 676.651 0)" xlink:href="#g"/></g></g></g></svg>