<svg width="738" height="446" viewBox="0 0 738 446" xmlns="http://www.w3.org/2000/svg" xmlns:xlink="http://www.w3.org/1999/xlink"><title>Group</title><defs><path id="a" d="M1 0L762.835938 4.54747351e-13 763 465 0.578125 465z"/><linearGradient x1="37.053%" y1="-38.735%" x2="33.786%" y2="95.07%" id="d"><stop stop-color="#2D1F98" offset="0%"/><stop stop-color="#E64C4C" offset="100%"/></linearGradient><path d="M790.44 465.14C585.043 470.55 352.643 314.608.42 268.04L216.906.702 790.44 465.14z" id="c"/><path d="M854.63 295.222c-171.392-16.932-364.738-8.846-644.378 52.087L490.93.702l363.702 294.52z" id="e"/><path d="M762.12 344.94c-21.206 3.467-40.68 6.868-61.144 9.956-262.85 39.657-374.53-72.245-552.12-121.827L337.021.702 762.12 344.94z" id="f"/><path d="M813.56 283.267c-214.876-117.213-398.197-52.501-588.71 13.528L464.748.805C702.47 191.94 818.74 286.093 813.56 283.267z" id="g"/></defs><g transform="rotate(180 381.5 223)" fill="none" fill-rule="evenodd"><mask id="b" fill="#fff"><use xlink:href="#a"/></mask><g mask="url(#b)"><g transform="rotate(39 669.468 267.276)"><use fill="url(#d)" opacity=".35" transform="matrix(-1 0 0 1 790.86 0)" xlink:href="#c"/><use fill="url(#d)" opacity=".35" transform="matrix(-1 0 0 1 1064.883 0)" xlink:href="#e"/><use fill="url(#d)" opacity=".35" transform="matrix(-1 0 0 1 910.976 0)" xlink:href="#f"/><use fill="url(#d)" opacity=".35" transform="matrix(-1 0 0 1 1038.575 0)" xlink:href="#g"/></g></g></g></svg>